<svg xmlns="http://www.w3.org/2000/svg" viewBox="0 0 512 512"><path fill="#00599C" d="M0 256c0 141.4 114.6 256 256 256s256-114.6 256-256S397.4 0 256 0 0 114.6 0 256zm241.6-38.4h-48v-48c0-4.4-3.6-8-8-8h-16c-4.4 0-8 3.6-8 8v48h-48c-4.4 0-8 3.6-8 8v16c0 4.4 3.6 8 8 8h48v48c0 4.4 3.6 8 8 8h16c4.4 0 8-3.6 8-8v-48h48c4.4 0 8-3.6 8-8v-16c0-4.4-3.6-8-8-8zm155.2 0h-48v-48c0-4.4-3.6-8-8-8h-16c-4.4 0-8 3.6-8 8v48h-48c-4.4 0-8 3.6-8 8v16c0 4.4 3.6 8 8 8h48v48c0 4.4 3.6 8 8 8h16c4.4 0 8-3.6 8-8v-48h48c4.4 0 8-3.6 8-8v-16c0-4.4-3.6-8-8-8z"/><path fill="#004482" d="M85.4 256c0 91.9 74.5 166.4 166.4 166.4 50.4 0 95.5-22.4 125.9-57.8L331 322c-23.4 28-58.5 45.8-97.8 45.8-70.5 0-127.6-57.1-127.6-127.6s57.1-127.6 127.6-127.6c39.3 0 74.4 17.8 97.8 45.8l46.7-42.6C347.3 80.4 302.2 58 251.8 58c-91.9 0-166.4 74.5-166.4 166z"/></svg>
