<svg xmlns="http://www.w3.org/2000/svg" viewBox="0 0 512 512"><path fill="#ce422b" d="M508.52 249.75l-21.92-13.38c-.37-6.45-.76-12.91-1.37-19.37l20.37-16.13a12.16 12.16 0 0 0 3.5-13.64c-6.48-20.08-15.28-39.27-26.16-57.13a12.15 12.15 0 0 0-13-5.38l-24.98 5.88c-3.86-5.11-7.99-10.05-12.37-14.79l12.33-23a12.15 12.15 0 0 0-2.51-14.1c-15.45-16.09-32.87-30.16-51.77-41.92a12.15 12.15 0 0 0-14.39.96l-17.88 18.01c-5.93-2.61-12-4.96-18.22-7.04l5.05-25.44a12.16 12.16 0 0 0-7.47-12.97C313.28 4.94 288.36 0 262.81 0c-25.54 0-50.46 4.94-74.05 14.67a12.16 12.16 0 0 0-7.47 12.97l5.05 25.44c-6.22 2.08-12.29 4.43-18.22 7.04L150.24 42.1a12.15 12.15 0 0 0-14.39-.96c-18.9 11.76-36.32 25.83-51.77 41.92a12.15 12.15 0 0 0-2.51 14.1l12.33 23c-4.38 4.74-8.51 9.68-12.37 14.79l-24.98-5.88a12.15 12.15 0 0 0-13 5.38c-10.88 17.86-19.68 37.05-26.16 57.13a12.16 12.16 0 0 0 3.5 13.64l20.37 16.13c-.61 6.46-1 12.92-1.37 19.37L17.98 249.75a12.16 12.16 0 0 0-7.47 11.22c0 21.25 2.25 42.16 6.69 62.43a12.16 12.16 0 0 0 10.15 9.05l25.72 3.31c2.55 6.13 5.38 12.11 8.46 17.93l-14.38 22.34a12.16 12.16 0 0 0 .97 14.39c13.43 16.71 28.74 31.61 45.54 44.26a12.16 12.16 0 0 0 14.14 1.03l21.05-14.42c5.37 3.42 10.93 6.57 16.66 9.46l-3.34 25.97a12.16 12.16 0 0 0 6.4 13.05c19.89 10.34 41.35 18.08 63.87 23.02a12.16 12.16 0 0 0 13.66-5.91l11.5-22.53c6.46.42 12.95.64 19.47.64s13.01-.22 19.47-.64l11.5 22.53a12.16 12.16 0 0 0 13.66 5.91c22.52-4.94 43.98-12.68 63.87-23.02a12.16 12.16 0 0 0 6.4-13.05l-3.34-25.97c5.73-2.89 11.29-6.04 16.66-9.46l21.05 14.42a12.16 12.16 0 0 0 14.14-1.03c16.8-12.65 32.11-27.55 45.54-44.26a12.16 12.16 0 0 0 .97-14.39l-14.38-22.34c3.08-5.82 5.91-11.8 8.46-17.93l25.72-3.31a12.16 12.16 0 0 0 10.15-9.05c4.44-20.27 6.69-41.18 6.69-62.43a12.16 12.16 0 0 0-7.47-11.22zM262.81 343.77c-55.24 0-100.09-44.85-100.09-100.09s44.85-100.09 100.09-100.09 100.09 44.85 100.09 100.09-44.85 100.09-100.09 100.09z"/><circle fill="#ce422b" cx="262.81" cy="243.68" r="60.09"/></svg>
